<?xml version="1.0" encoding="UTF-8"?>
<svg version="1.1" xmlns="http://www.w3.org/2000/svg" width="46" height="47">
<path d="M0 0 C0 5.61 0 11.22 0 17 C5.61 17 11.22 17 17 17 C16.8021843 23.42901016 16.03892796 26.83684697 11.66796875 31.58984375 C7.0629005 35.48312159 2.77007756 35.42326784 -3.0859375 35.31640625 C-8.3361502 34.74634294 -10.89800985 32.22112422 -14.3125 28.4375 C-17.96734678 23.15827688 -17.59066683 17.193798 -17 11 C-13.31095482 3.34864703 -8.3032371 0 0 0 Z " fill="#2BBDFF" transform="translate(17,11)"/>
<path d="M0 0 C2.99009791 2.69108812 4.26913524 4.62320878 4.8359375 8.6171875 C4.92500354 14.33522757 4.49386657 17.81237048 0.5 22.25 C-2.37493295 24.00873836 -4.47782733 24.4931739 -7.828125 24.4453125 C-8.62734375 24.43886719 -9.4265625 24.43242187 -10.25 24.42578125 C-11.075 24.40902344 -11.9 24.39226563 -12.75 24.375 C-13.59046875 24.36597656 -14.4309375 24.35695313 -15.296875 24.34765625 C-17.36470604 24.32415817 -19.43238995 24.28828908 -21.5 24.25 C-21.60852923 21.37397545 -21.6875515 18.50209168 -21.75 15.625 C-21.78351562 14.81675781 -21.81703125 14.00851562 -21.8515625 13.17578125 C-21.94049893 7.70619084 -21.25785579 4.52029067 -17.5 0.25 C-12.28105286 -3.37601548 -5.43137532 -2.71568766 0 0 Z " fill="#30B81D" transform="translate(40.5,1.75)"/>
<path d="M0 0 C5.61 0 11.22 0 17 0 C16.8021843 6.42901016 16.03892796 9.83684697 11.66796875 14.58984375 C7.56925606 18.05503176 5.7141861 18 0 18 C0 12.06 0 6.12 0 0 Z " fill="#00B6A6" transform="translate(17,28)"/>
<path d="M0 0 C0 5.61 0 11.22 0 17 C-5.61 17 -11.22 17 -17 17 C-17 10.74313815 -16.71263509 9.61570849 -13 5 C-8.14148362 0.71987842 -6.76206611 0 0 0 Z " fill="#00A3F3" transform="translate(17,11)"/>
</svg>
