<svg width="198" height="46" viewBox="0 0 198 46" fill="none" xmlns="http://www.w3.org/2000/svg">
<path d="M0 28.0013C0 25.7688 0.440051 23.558 1.29508 21.4955C2.15012 19.4328 3.40332 17.5586 4.9832 15.9799C6.56308 14.4013 8.43859 13.149 10.5028 12.2946C12.567 11.4403 14.7794 11.0005 17.0137 11.0005V28.0013H0Z" fill="#00A4F4"/>
<path d="M0 28.0013C0 30.3653 0.440051 32.706 1.29508 34.89C2.15012 37.074 3.40332 39.0583 4.9832 40.7298C6.56308 42.4014 8.43859 43.7273 10.5028 44.632C12.567 45.5366 14.7794 46.0021 17.0137 46.0021V28.0013H0Z" fill="#2CBEFF"/>
<path d="M34.0274 28.0013C34.0274 30.3653 33.5877 32.706 32.7327 34.89C31.8777 37.074 30.6245 39.0583 29.0443 40.7298C27.4644 42.4014 25.5888 43.7273 23.5245 44.632C21.4604 45.5366 19.2479 46.0021 17.0137 46.0021V28.0013H34.0274Z" fill="#00B7A7"/>
<path d="M45.0366 13.0006C45.0366 20.1806 39.2114 26.0012 32.026 26.0012H19.0156V13.0006C19.0156 5.82059 24.8406 0 32.026 0C39.2114 0 45.0366 5.82059 45.0366 13.0006Z" fill="#30B91E"/>
<path d="M64.6479 37.2952C63.0557 37.2952 61.6692 37.0537 60.4885 36.5706C59.3257 36.0876 58.2612 35.3273 57.2952 34.2897L60.3275 31.2306C60.9894 31.9283 61.6961 32.465 62.4474 32.8406C63.1988 33.1984 64.0485 33.3773 64.9967 33.3773C65.8017 33.3773 66.4189 33.2432 66.8483 32.9748C67.2955 32.6886 67.5192 32.3039 67.5192 31.8209C67.5192 31.3737 67.3581 31.0069 67.0361 30.7207C66.7141 30.4166 66.2848 30.1572 65.7481 29.9425C65.2293 29.7099 64.6479 29.4953 64.0038 29.2985C63.3777 29.0838 62.7426 28.8333 62.0986 28.5471C61.4724 28.243 60.891 27.8762 60.3543 27.4469C59.8355 27.0175 59.4151 26.4808 59.0931 25.8368C58.7711 25.1928 58.6101 24.3967 58.6101 23.4485C58.6101 22.232 58.8963 21.1944 59.4688 20.3357C60.0591 19.477 60.8731 18.8151 61.9107 18.35C62.9483 17.8848 64.1559 17.6523 65.5334 17.6523C66.9109 17.6523 68.1811 17.8848 69.3439 18.35C70.5067 18.8151 71.4638 19.4591 72.2152 20.2821L69.1561 23.3144C68.5836 22.7419 68.0022 22.3125 67.4118 22.0263C66.8215 21.7401 66.1774 21.597 65.4797 21.597C64.8178 21.597 64.299 21.7132 63.9233 21.9458C63.5476 22.1784 63.3598 22.5093 63.3598 22.9387C63.3598 23.368 63.5208 23.7169 63.8428 23.9852C64.1648 24.2536 64.5852 24.4951 65.104 24.7098C65.6407 24.9066 66.2221 25.1123 66.8483 25.327C67.4923 25.5416 68.1274 25.7921 68.7535 26.0783C69.3797 26.3646 69.9522 26.7313 70.471 27.1785C71.0076 27.6258 71.437 28.1893 71.759 28.8691C72.081 29.5489 72.242 30.3719 72.242 31.3379C72.242 33.2342 71.5712 34.7012 70.2294 35.7388C68.9056 36.7764 67.0451 37.2952 64.6479 37.2952ZM74.354 37V23.8779H79.0232V37H74.354ZM82.5922 37V29.4058C82.5922 28.8512 82.4223 28.4219 82.0824 28.1178C81.7425 27.7957 81.322 27.6347 80.8211 27.6347C80.4633 27.6347 80.1503 27.7063 79.8819 27.8494C79.6136 27.9925 79.3989 28.1983 79.2379 28.4666C79.0948 28.7171 79.0232 29.0301 79.0232 29.4058L77.1985 28.6813C77.1985 27.6258 77.431 26.7224 77.8962 25.971C78.3613 25.2196 78.9874 24.6382 79.7746 24.2267C80.5617 23.8153 81.4562 23.6095 82.458 23.6095C83.3525 23.6095 84.1576 23.8242 84.8732 24.2536C85.6066 24.665 86.1881 25.2465 86.6174 25.9978C87.0468 26.7492 87.2614 27.6347 87.2614 28.6544V37H82.5922ZM90.8304 37V29.4058C90.8304 28.8512 90.6605 28.4219 90.3206 28.1178C89.9807 27.7957 89.5603 27.6347 89.0594 27.6347C88.7194 27.6347 88.4064 27.7063 88.1201 27.8494C87.8518 27.9925 87.6371 28.1983 87.4761 28.4666C87.333 28.7171 87.2614 29.0301 87.2614 29.4058L84.5243 29.2716C84.5601 28.0909 84.8195 27.0802 85.3025 26.2393C85.7855 25.3985 86.4475 24.7545 87.2883 24.3072C88.147 23.8421 89.113 23.6095 90.1864 23.6095C91.2061 23.6095 92.1185 23.8242 92.9235 24.2536C93.7286 24.6829 94.3547 25.3091 94.802 26.132C95.2671 26.937 95.4997 27.9031 95.4997 29.0301V37H90.8304ZM103.413 37.2683C102.197 37.2683 101.115 36.9732 100.166 36.3828C99.2182 35.7924 98.4758 34.9874 97.9391 33.9677C97.4024 32.9301 97.134 31.7583 97.134 30.4524C97.134 29.1285 97.4024 27.9478 97.9391 26.9102C98.4758 25.8726 99.2182 25.0676 100.166 24.4951C101.115 23.9047 102.197 23.6095 103.413 23.6095C104.236 23.6095 104.988 23.7616 105.667 24.0657C106.347 24.352 106.902 24.7634 107.331 25.3001C107.778 25.8368 108.047 26.4451 108.136 27.1249V33.7262C108.047 34.4239 107.778 35.0411 107.331 35.5778C106.902 36.0966 106.347 36.508 105.667 36.8122C104.988 37.1163 104.236 37.2683 103.413 37.2683ZM104.406 33.109C105.175 33.109 105.793 32.8585 106.258 32.3576C106.741 31.8567 106.982 31.2127 106.982 30.4255C106.982 29.9067 106.875 29.4505 106.66 29.057C106.446 28.6634 106.142 28.3503 105.748 28.1178C105.372 27.8852 104.934 27.7689 104.433 27.7689C103.932 27.7689 103.485 27.8852 103.091 28.1178C102.716 28.3503 102.412 28.6723 102.179 29.0838C101.964 29.4774 101.857 29.9246 101.857 30.4255C101.857 30.9443 101.964 31.4095 102.179 31.8209C102.394 32.2145 102.698 32.5276 103.091 32.7601C103.485 32.9927 103.923 33.109 104.406 33.109ZM106.794 37V33.4847L107.465 30.2645L106.794 27.098V23.8779H111.383V37H106.794ZM114.108 37V23.8779H118.777V37H114.108ZM118.777 29.862L116.684 28.0909C117.203 26.6061 117.892 25.488 118.75 24.7366C119.609 23.9852 120.727 23.6095 122.105 23.6095C122.731 23.6095 123.267 23.6901 123.715 23.8511C124.18 24.0121 124.573 24.2625 124.895 24.6024L122.185 28.2251C122.042 28.0641 121.836 27.9389 121.568 27.8494C121.318 27.7421 121.031 27.6884 120.709 27.6884C120.101 27.6884 119.627 27.8762 119.287 28.2519C118.947 28.6097 118.777 29.1464 118.777 29.862ZM127.777 37V18.4573H132.446V37H127.777ZM124.879 27.7689V23.8779H135.344V27.7689H124.879Z" fill="#004990"/>
<path d="M146.539 37.2952C145.09 37.2952 143.748 37.0537 142.513 36.5706C141.279 36.0697 140.197 35.381 139.266 34.5044C138.354 33.6099 137.638 32.5633 137.12 31.3647C136.619 30.1661 136.368 28.8691 136.368 27.4737C136.368 26.0604 136.619 24.7634 137.12 23.5827C137.638 22.3841 138.354 21.3465 139.266 20.4699C140.197 19.5933 141.27 18.9046 142.487 18.4036C143.721 17.9027 145.054 17.6523 146.485 17.6523C147.988 17.6523 149.338 17.8938 150.537 18.3768C151.736 18.8419 152.791 19.4949 153.703 20.3357L150.483 23.5559C150.036 23.055 149.481 22.6614 148.82 22.3752C148.158 22.0889 147.379 21.9458 146.485 21.9458C145.716 21.9458 145.009 22.071 144.365 22.3215C143.739 22.5719 143.193 22.9476 142.728 23.4485C142.263 23.9316 141.896 24.513 141.628 25.1928C141.377 25.8726 141.252 26.6329 141.252 27.4737C141.252 28.3145 141.377 29.0749 141.628 29.7547C141.896 30.4345 142.263 31.0248 142.728 31.5257C143.193 32.0088 143.739 32.3845 144.365 32.6528C145.009 32.9033 145.716 33.0285 146.485 33.0285C147.379 33.0285 148.167 32.8943 148.846 32.626C149.526 32.3397 150.108 31.9372 150.591 31.4184L153.811 34.6386C152.88 35.4794 151.825 36.1323 150.644 36.5975C149.481 37.0626 148.113 37.2952 146.539 37.2952ZM160.777 37.2683C159.561 37.2683 158.479 36.9732 157.53 36.3828C156.582 35.7924 155.84 34.9874 155.303 33.9677C154.767 32.9301 154.498 31.7583 154.498 30.4524C154.498 29.1285 154.767 27.9478 155.303 26.9102C155.84 25.8726 156.582 25.0676 157.53 24.4951C158.479 23.9047 159.561 23.6095 160.777 23.6095C161.6 23.6095 162.352 23.7616 163.032 24.0657C163.711 24.352 164.266 24.7634 164.695 25.3001C165.143 25.8368 165.411 26.4451 165.5 27.1249V33.7262C165.411 34.4239 165.143 35.0411 164.695 35.5778C164.266 36.0966 163.711 36.508 163.032 36.8122C162.352 37.1163 161.6 37.2683 160.777 37.2683ZM161.77 33.109C162.54 33.109 163.157 32.8585 163.622 32.3576C164.105 31.8567 164.346 31.2127 164.346 30.4255C164.346 29.9067 164.239 29.4505 164.024 29.057C163.81 28.6634 163.506 28.3503 163.112 28.1178C162.736 27.8852 162.298 27.7689 161.797 27.7689C161.296 27.7689 160.849 27.8852 160.455 28.1178C160.08 28.3503 159.776 28.6723 159.543 29.0838C159.328 29.4774 159.221 29.9246 159.221 30.4255C159.221 30.9443 159.328 31.4095 159.543 31.8209C159.758 32.2145 160.062 32.5276 160.455 32.7601C160.849 32.9927 161.287 33.109 161.77 33.109ZM164.159 37V33.4847L164.83 30.2645L164.159 27.098V23.8779H168.747V37H164.159ZM171.472 37V23.8779H176.141V37H171.472ZM176.141 29.862L174.048 28.0909C174.567 26.6061 175.256 25.488 176.114 24.7366C176.973 23.9852 178.091 23.6095 179.469 23.6095C180.095 23.6095 180.632 23.6901 181.079 23.8511C181.544 24.0121 181.938 24.2625 182.26 24.6024L179.549 28.2251C179.406 28.0641 179.2 27.9389 178.932 27.8494C178.682 27.7421 178.395 27.6884 178.073 27.6884C177.465 27.6884 176.991 27.8762 176.651 28.2519C176.311 28.6097 176.141 29.1464 176.141 29.862ZM189.447 37.2952C187.98 37.2952 186.683 37.0089 185.556 36.4365C184.429 35.8461 183.544 35.0321 182.9 33.9945C182.256 32.9569 181.934 31.7673 181.934 30.4255C181.934 29.1017 182.247 27.9299 182.873 26.9102C183.499 25.8726 184.349 25.0586 185.422 24.4683C186.513 23.86 187.739 23.5559 189.098 23.5559C190.422 23.5559 191.594 23.8421 192.614 24.4146C193.651 24.9692 194.456 25.7474 195.029 26.7492C195.619 27.7331 195.914 28.8602 195.914 30.1303C195.914 30.3987 195.897 30.676 195.861 30.9622C195.843 31.2306 195.789 31.5436 195.7 31.9014L184.134 31.9551V28.9496L193.848 28.8691L191.755 30.184C191.737 29.4505 191.63 28.8512 191.433 28.3861C191.236 27.9031 190.95 27.5363 190.574 27.2859C190.199 27.0354 189.725 26.9102 189.152 26.9102C188.562 26.9102 188.052 27.0533 187.623 27.3396C187.193 27.6258 186.862 28.0283 186.63 28.5471C186.397 29.0659 186.281 29.6921 186.281 30.4255C186.281 31.1769 186.406 31.8209 186.656 32.3576C186.907 32.8764 187.265 33.27 187.73 33.5383C188.195 33.8067 188.767 33.9409 189.447 33.9409C190.091 33.9409 190.655 33.8335 191.138 33.6188C191.639 33.4042 192.086 33.0732 192.48 32.626L194.922 35.0679C194.278 35.8014 193.49 36.356 192.56 36.7317C191.648 37.1073 190.61 37.2952 189.447 37.2952Z" fill="#30B91E"/>
</svg>
